<svg xmlns="http://www.w3.org/2000/svg" width="36" height="36" viewBox="0 0 36 36" fill="none">
  <g clip-path="url(#clip0_13_138)">
    <path d="M28.5 6C29.6935 6 30.8381 6.47411 31.682 7.31802C32.5259 8.16193 33 9.30653 33 10.5V25.5C33 26.6935 32.5259 27.8381 31.682 28.682C30.8381 29.5259 29.6935 30 28.5 30H7.5C6.30653 30 5.16193 29.5259 4.31802 28.682C3.47411 27.8381 3 26.6935 3 25.5V10.5C3 9.30653 3.47411 8.16193 4.31802 7.31802C5.16193 6.47411 6.30653 6 7.5 6H28.5ZM22.5 12H21C20.6022 12 20.2206 12.158 19.9393 12.4393C19.658 12.7206 19.5 13.1022 19.5 13.5V22.5C19.5 22.8978 19.658 23.2794 19.9393 23.5607C20.2206 23.842 20.6022 24 21 24H22.5C23.6935 24 24.8381 23.5259 25.682 22.682C26.5259 21.8381 27 20.6935 27 19.5V16.5C27 15.3065 26.5259 14.1619 25.682 13.318C24.8381 12.4741 23.6935 12 22.5 12ZM12.75 12C11.7554 12 10.8016 12.3951 10.0983 13.0983C9.39509 13.8016 9 14.7554 9 15.75V22.5C9 22.8978 9.15804 23.2794 9.43934 23.5607C9.72064 23.842 10.1022 24 10.5 24C10.8978 24 11.2794 23.842 11.5607 23.5607C11.842 23.2794 12 22.8978 12 22.5V21H13.5V22.5C13.5 22.8674 13.6349 23.222 13.8791 23.4966C14.1232 23.7711 14.4596 23.9465 14.8245 23.9895L15 24C15.3978 24 15.7794 23.842 16.0607 23.5607C16.342 23.2794 16.5 22.8978 16.5 22.5V15.75C16.5 14.7554 16.1049 13.8016 15.4017 13.0983C14.6984 12.3951 13.7446 12 12.75 12ZM22.5 15C22.8978 15 23.2794 15.158 23.5607 15.4393C23.842 15.7206 24 16.1022 24 16.5V19.5C24 19.8674 23.8651 20.222 23.6209 20.4966C23.3768 20.7711 23.0404 20.9465 22.6755 20.9895L22.5 21V15ZM12.75 15C12.9489 15 13.1397 15.079 13.2803 15.2197C13.421 15.3603 13.5 15.5511 13.5 15.75V18H12V15.75C11.9999 15.5745 12.0615 15.4045 12.1738 15.2696C12.2862 15.1348 12.4423 15.0436 12.615 15.012L12.75 15Z" fill="#1C1B20"/>
  </g>
  <defs>
    <clipPath id="clip0_13_138">
      <rect width="36" height="36" fill="white"/>
    </clipPath>
  </defs>
</svg>