<svg xmlns="http://www.w3.org/2000/svg" width="88" height="86" viewBox="0 0 88 86" fill="none">
  <path d="M63.073 13.3642C69.7136 18.0807 77.6293 19.7957 82.4106 24.5658C87.1918 29.2823 88.7856 37.0538 87.1918 43.9141C85.5981 50.7209 80.7637 56.6165 77.4168 63.7984C74.0168 71.034 72.1574 79.5022 67.0574 82.182C62.0105 84.8618 53.7761 81.7532 45.2761 82.1284C36.8292 82.5572 28.1167 86.5769 21.2635 84.9154C14.4635 83.254 9.576 75.9648 5.59161 68.3005C1.66035 60.6898 -1.36778 52.7576 0.863476 46.1116C3.04161 39.4656 10.4791 34.106 15.7916 28.8535C21.1042 23.6011 24.2917 18.4558 28.9135 12.5066C33.5354 6.61101 39.5386 -0.142145 45.2761 0.340223C50.9605 0.822591 56.3792 8.59408 63.073 13.3642Z" fill="#19C2AA"/>
</svg>