<svg xmlns="http://www.w3.org/2000/svg" width="27" height="27" viewBox="0 0 27 27" fill="none">
  <g clip-path="url(#clip0_16_21)">
    <path d="M3.375 13.5C3.375 14.8296 3.63689 16.1462 4.14572 17.3747C4.65455 18.6031 5.40035 19.7193 6.34054 20.6595C7.28074 21.5996 8.39691 22.3455 9.62533 22.8543C10.8538 23.3631 12.1704 23.625 13.5 23.625C14.8296 23.625 16.1462 23.3631 17.3747 22.8543C18.6031 22.3455 19.7193 21.5996 20.6595 20.6595C21.5996 19.7193 22.3455 18.6031 22.8543 17.3747C23.3631 16.1462 23.625 14.8296 23.625 13.5C23.625 12.1704 23.3631 10.8538 22.8543 9.62533C22.3455 8.39691 21.5996 7.28074 20.6595 6.34054C19.7193 5.40035 18.6031 4.65455 17.3747 4.14572C16.1462 3.63689 14.8296 3.375 13.5 3.375C12.1704 3.375 10.8538 3.63689 9.62533 4.14572C8.39691 4.65455 7.28074 5.40035 6.34054 6.34054C5.40035 7.28074 4.65455 8.39691 4.14572 9.62533C3.63689 10.8538 3.375 12.1704 3.375 13.5Z" stroke="#19C2AA" stroke-width="2" stroke-linecap="round" stroke-linejoin="round"/>
    <path d="M12.9375 3.375C11.3554 4.54685 10.07 6.07314 9.18423 7.83146C8.2985 9.58978 7.83713 11.5312 7.83713 13.5C7.83713 15.4688 8.2985 17.4102 9.18423 19.1685C10.07 20.9269 11.3554 22.4531 12.9375 23.625" stroke="#19C2AA" stroke-width="2" stroke-linecap="round" stroke-linejoin="round"/>
    <path d="M14.0625 3.375C15.6446 4.54685 16.93 6.07314 17.8158 7.83146C18.7015 9.58978 19.1629 11.5312 19.1629 13.5C19.1629 15.4688 18.7015 17.4102 17.8158 19.1685C16.93 20.9269 15.6446 22.4531 14.0625 23.625" stroke="#19C2AA" stroke-width="2" stroke-linecap="round" stroke-linejoin="round"/>
    <path d="M13.5 3.375V23.625" stroke="#19C2AA" stroke-width="2" stroke-linecap="round" stroke-linejoin="round"/>
  </g>
  <defs>
    <clipPath id="clip0_16_21">
      <rect width="27" height="27" fill="white"/>
    </clipPath>
  </defs>
</svg>