<svg xmlns="http://www.w3.org/2000/svg" width="36" height="36" viewBox="0 0 36 36" fill="none">
  <g clip-path="url(#clip0_13_124)">
    <path d="M25.5 5.00996C27.7803 6.32649 29.6739 8.22008 30.9904 10.5004C32.3069 12.7807 33 15.3674 33 18.0004C33 20.6335 32.3069 23.2202 30.9903 25.5005C29.6738 27.7808 27.7802 29.6743 25.4998 30.9908C23.2195 32.3073 20.6328 33.0004 17.9998 33.0003C15.3667 33.0003 12.78 32.3072 10.4998 30.9906C8.21948 29.674 6.32593 27.7804 5.00945 25.5001C3.69297 23.2197 2.99993 20.633 3 18L3.0075 17.514C3.0915 14.9234 3.84532 12.3989 5.19546 10.1865C6.5456 7.974 8.44598 6.14914 10.7113 4.88978C12.9767 3.63043 15.5297 2.97956 18.1215 3.00062C20.7133 3.02168 23.2554 3.71396 25.5 5.00996ZM18 8.99996C14.5725 8.99996 12.1275 12.9285 12.0045 17.628L12 18C12 22.863 14.4825 27 18 27C21.5175 27 24 22.863 24 18C24 13.137 21.5175 8.99996 18 8.99996Z" fill="#1C1B20"/>
  </g>
  <defs>
    <clipPath id="clip0_13_124">
      <rect width="36" height="36" fill="white"/>
    </clipPath>
  </defs>
</svg>