<svg xmlns="http://www.w3.org/2000/svg" width="27" height="27" viewBox="0 0 27 27" fill="none">
  <g clip-path="url(#clip0_16_27)">
    <path d="M5.97937 2.36255C6.86925 2.23542 8.11687 2.52567 9.729 3.4493L10.035 3.63042L10.215 3.74292L10.6616 3.64955C12.3646 3.32047 14.1119 3.29002 15.8254 3.55955L16.3384 3.64955L16.7839 3.74292L16.965 3.63042C18.5231 2.68542 19.7629 2.31417 20.7022 2.33892L20.8867 2.34792L21.0521 2.36705L21.1376 2.3828L21.1939 2.39517L21.3559 2.44805C21.6211 2.55769 21.8344 2.76455 21.9521 3.0263C22.4125 4.05196 22.5675 5.18855 22.3987 6.30005L22.3459 6.60042L22.2941 6.82092L22.4325 7.0043C23.0782 7.89867 23.4787 8.9483 23.5912 10.0497L23.6171 10.3815L23.625 10.6875C23.625 15.0244 21.7586 17.3059 18.4005 18.2025L18.1249 18.2712L17.9764 18.3038L17.9921 18.4849L18.0011 18.6615L18.0056 19.0722L18.0034 19.3118L18 23.625C18 23.9006 17.8988 24.1666 17.7157 24.3725C17.5326 24.5784 17.2803 24.7099 17.0066 24.7422L16.875 24.75H10.125C9.84945 24.75 9.58349 24.6488 9.37758 24.4657C9.17166 24.2826 9.04011 24.0303 9.00787 23.7567L9 23.625V22.7993C6.95475 23.0918 5.59125 22.3223 4.37625 20.6865L3.77437 19.8248C3.45937 19.3793 3.2625 19.1734 3.11175 19.1003L3.05775 19.0789C2.77921 18.9884 2.54695 18.7928 2.41033 18.5338C2.27371 18.2747 2.2435 17.9726 2.32612 17.6916C2.40875 17.4106 2.59769 17.173 2.85279 17.0291C3.1079 16.8852 3.40905 16.8465 3.69225 16.9212C4.4145 17.1327 4.9005 17.5602 5.4585 18.315L6.06375 19.1802C6.91875 20.394 7.59375 20.8215 8.99887 20.52L9 19.7573L8.97975 19.5683C8.94652 19.2605 8.93862 18.9504 8.95612 18.6413L8.97525 18.4332L8.99662 18.2982L8.87512 18.2712C5.52712 17.4724 3.58425 15.3765 3.39075 11.3648L3.3795 11.016L3.375 10.6875C3.3763 9.4687 3.73114 8.27639 4.3965 7.25517L4.5675 7.00542L4.70475 6.82205L4.65412 6.60155C4.4513 5.61331 4.5075 4.58941 4.81725 3.6293L4.92975 3.31205L5.049 3.02742C5.16644 2.76588 5.37931 2.55905 5.64412 2.44917L5.80612 2.3963L5.97937 2.36255Z" fill="#19C2AA"/>
  </g>
  <defs>
    <clipPath id="clip0_16_27">
      <rect width="27" height="27" fill="white"/>
    </clipPath>
  </defs>
</svg>