<svg xmlns="http://www.w3.org/2000/svg" width="27" height="27" viewBox="0 0 27 27" fill="none">
  <g clip-path="url(#clip0_16_18)">
    <path d="M18 3.375C19.4918 3.375 20.9226 3.96763 21.9775 5.02252C23.0324 6.07742 23.625 7.50816 23.625 9V18C23.625 19.4918 23.0324 20.9226 21.9775 21.9775C20.9226 23.0324 19.4918 23.625 18 23.625H9C7.50816 23.625 6.07742 23.0324 5.02252 21.9775C3.96763 20.9226 3.375 19.4918 3.375 18V9C3.375 7.50816 3.96763 6.07742 5.02252 5.02252C6.07742 3.96763 7.50816 3.375 9 3.375H18ZM13.5 9C12.3455 9 11.2351 9.44374 10.3986 10.2394C9.56206 11.0351 9.06335 12.1219 9.00563 13.275L9 13.5C9 14.39 9.26392 15.26 9.75839 16.0001C10.2529 16.7401 10.9557 17.3169 11.7779 17.6575C12.6002 17.9981 13.505 18.0872 14.3779 17.9135C15.2508 17.7399 16.0526 17.3113 16.682 16.682C17.3113 16.0526 17.7399 15.2508 17.9135 14.3779C18.0872 13.505 17.9981 12.6002 17.6575 11.7779C17.3169 10.9557 16.7401 10.2529 16.0001 9.75839C15.26 9.26392 14.39 9 13.5 9ZM18.5625 7.3125C18.287 7.31254 18.021 7.4137 17.8151 7.5968C17.6092 7.77991 17.4776 8.03222 17.4454 8.30587L17.4375 8.44875C17.4378 8.73549 17.5476 9.01129 17.7445 9.21979C17.9413 9.42829 18.2103 9.55376 18.4966 9.57057C18.7828 9.58737 19.0647 9.49424 19.2846 9.3102C19.5044 9.12616 19.6458 8.86511 19.6796 8.58037L19.6875 8.4375C19.6875 8.13913 19.569 7.85298 19.358 7.642C19.147 7.43103 18.8609 7.3125 18.5625 7.3125Z" fill="#19C2AA"/>
  </g>
  <defs>
    <clipPath id="clip0_16_18">
      <rect width="27" height="27" fill="white"/>
    </clipPath>
  </defs>
</svg>