<svg xmlns="http://www.w3.org/2000/svg" width="27" height="27" viewBox="0 0 27 27" fill="none">
  <g clip-path="url(#clip0_16_15)">
    <path d="M19.125 2.25C20.6168 2.25 22.0476 2.84263 23.1025 3.89752C24.1574 4.95242 24.75 6.38316 24.75 7.875V19.125C24.75 20.6168 24.1574 22.0476 23.1025 23.1025C22.0476 24.1574 20.6168 24.75 19.125 24.75H7.875C6.38316 24.75 4.95242 24.1574 3.89752 23.1025C2.84263 22.0476 2.25 20.6168 2.25 19.125V7.875C2.25 6.38316 2.84263 4.95242 3.89752 3.89752C4.95242 2.84263 6.38316 2.25 7.875 2.25H19.125ZM9 11.25C8.70163 11.25 8.41548 11.3685 8.2045 11.5795C7.99353 11.7905 7.875 12.0766 7.875 12.375V18C7.875 18.2984 7.99353 18.5845 8.2045 18.7955C8.41548 19.0065 8.70163 19.125 9 19.125C9.29837 19.125 9.58452 19.0065 9.7955 18.7955C10.0065 18.5845 10.125 18.2984 10.125 18V12.375C10.125 12.0766 10.0065 11.7905 9.7955 11.5795C9.58452 11.3685 9.29837 11.25 9 11.25ZM15.75 11.25C15.2987 11.2497 14.8518 11.34 14.436 11.5155L14.2954 11.5796C14.138 11.4223 13.9376 11.3152 13.7194 11.2718C13.5012 11.2285 13.2751 11.2507 13.0695 11.3359C12.864 11.421 12.6883 11.5651 12.5647 11.7501C12.4411 11.9351 12.375 12.1525 12.375 12.375V18C12.375 18.2984 12.4935 18.5845 12.7045 18.7955C12.9155 19.0065 13.2016 19.125 13.5 19.125C13.7984 19.125 14.0845 19.0065 14.2955 18.7955C14.5065 18.5845 14.625 18.2984 14.625 18V14.625C14.625 14.3266 14.7435 14.0405 14.9545 13.8295C15.1655 13.6185 15.4516 13.5 15.75 13.5C16.0484 13.5 16.3345 13.6185 16.5455 13.8295C16.7565 14.0405 16.875 14.3266 16.875 14.625V18C16.875 18.2984 16.9935 18.5845 17.2045 18.7955C17.4155 19.0065 17.7016 19.125 18 19.125C18.2984 19.125 18.5845 19.0065 18.7955 18.7955C19.0065 18.5845 19.125 18.2984 19.125 18V14.625C19.125 13.7299 18.7694 12.8714 18.1365 12.2385C17.5036 11.6056 16.6451 11.25 15.75 11.25ZM9 7.875C8.72445 7.87504 8.4585 7.9762 8.25258 8.1593C8.04667 8.34241 7.91511 8.59472 7.88287 8.86837L7.875 9.01125C7.87532 9.29799 7.98511 9.57379 8.18195 9.78229C8.37879 9.99079 8.64782 10.1163 8.93407 10.1331C9.22032 10.1499 9.50218 10.0567 9.72206 9.8727C9.94195 9.68866 10.0833 9.42761 10.1171 9.14287L10.125 9C10.125 8.70163 10.0065 8.41548 9.7955 8.2045C9.58452 7.99353 9.29837 7.875 9 7.875Z" fill="#19C2AA"/>
  </g>
  <defs>
    <clipPath id="clip0_16_15">
      <rect width="27" height="27" fill="white"/>
    </clipPath>
  </defs>
</svg>