<svg xmlns="http://www.w3.org/2000/svg" width="36" height="36" viewBox="0 0 36 36" fill="none">
  <g clip-path="url(#clip0_13_150)">
    <path d="M13.5 4.5C14.2956 4.5 15.0587 4.81607 15.6213 5.37868C16.1839 5.94129 16.5 6.70435 16.5 7.5V13.5C16.5 14.2956 16.1839 15.0587 15.6213 15.6213C15.0587 16.1839 14.2956 16.5 13.5 16.5H7.5C6.70435 16.5 5.94129 16.1839 5.37868 15.6213C4.81607 15.0587 4.5 14.2956 4.5 13.5V7.5C4.5 6.70435 4.81607 5.94129 5.37868 5.37868C5.94129 4.81607 6.70435 4.5 7.5 4.5H13.5Z" fill="#1C1B20"/>
    <path d="M28.5 4.5C29.2956 4.5 30.0587 4.81607 30.6213 5.37868C31.1839 5.94129 31.5 6.70435 31.5 7.5V13.5C31.5 14.2956 31.1839 15.0587 30.6213 15.6213C30.0587 16.1839 29.2956 16.5 28.5 16.5H22.5C21.7044 16.5 20.9413 16.1839 20.3787 15.6213C19.8161 15.0587 19.5 14.2956 19.5 13.5V7.5C19.5 6.70435 19.8161 5.94129 20.3787 5.37868C20.9413 4.81607 21.7044 4.5 22.5 4.5H28.5Z" fill="#1C1B20"/>
    <path d="M13.5 19.5C14.2956 19.5 15.0587 19.8161 15.6213 20.3787C16.1839 20.9413 16.5 21.7044 16.5 22.5V28.5C16.5 29.2956 16.1839 30.0587 15.6213 30.6213C15.0587 31.1839 14.2956 31.5 13.5 31.5H7.5C6.70435 31.5 5.94129 31.1839 5.37868 30.6213C4.81607 30.0587 4.5 29.2956 4.5 28.5V22.5C4.5 21.7044 4.81607 20.9413 5.37868 20.3787C5.94129 19.8161 6.70435 19.5 7.5 19.5H13.5Z" fill="#1C1B20"/>
    <path d="M28.5 19.5C29.2956 19.5 30.0587 19.8161 30.6213 20.3787C31.1839 20.9413 31.5 21.7044 31.5 22.5V28.5C31.5 29.2956 31.1839 30.0587 30.6213 30.6213C30.0587 31.1839 29.2956 31.5 28.5 31.5H22.5C21.7044 31.5 20.9413 31.1839 20.3787 30.6213C19.8161 30.0587 19.5 29.2956 19.5 28.5V22.5C19.5 21.7044 19.8161 20.9413 20.3787 20.3787C20.9413 19.8161 21.7044 19.5 22.5 19.5H28.5Z" fill="#1C1B20"/>
  </g>
  <defs>
    <clipPath id="clip0_13_150">
      <rect width="36" height="36" fill="white"/>
    </clipPath>
  </defs>
</svg>